REM DIRINDEX 1\4,1\2\5,1\2\6,1\3\7,1\3\8
REM DIRNAME folder01,folder02,folder03,folder04,folder05,folder06,folder07,folder08
TITLE ""
FILE "085_Day43_Check2_Phrases.mp3" MP3
  TRACK 01 AUDIO
    TITLE "0:"
    INDEX 01 00:00:00
  TRACK 02 AUDIO
    TITLE "4:cjc124_2775"
    INDEX 01 00:00:33
  TRACK 03 AUDIO
    TITLE "0:"
    INDEX 01 00:01:56
  TRACK 04 AUDIO
    TITLE "5:cjc124_2776"
    INDEX 01 00:02:18
  TRACK 05 AUDIO
    TITLE "0:"
    INDEX 01 00:03:45
  TRACK 06 AUDIO
    TITLE "6:cjc124_2777"
    INDEX 01 00:03:68
  TRACK 07 AUDIO
    TITLE "0:"
    INDEX 01 00:05:05
  TRACK 08 AUDIO
    TITLE "5:cjc124_2778"
    INDEX 01 00:05:44
  TRACK 09 AUDIO
    TITLE "0:"
    INDEX 01 00:07:33
  TRACK 10 AUDIO
    TITLE "6:cjc124_2779"
    INDEX 01 00:07:51
  TRACK 11 AUDIO
    TITLE "0:"
    INDEX 01 00:09:26
  TRACK 12 AUDIO
    TITLE "5:cjc124_2780"
    INDEX 01 00:09:65
  TRACK 13 AUDIO
    TITLE "0:"
    INDEX 01 00:11:40
  TRACK 14 AUDIO
    TITLE "6:cjc124_2781"
    INDEX 01 00:11:60
  TRACK 15 AUDIO
    TITLE "0:"
    INDEX 01 00:13:30
  TRACK 16 AUDIO
    TITLE "5:cjc124_2782"
    INDEX 01 00:13:71
  TRACK 17 AUDIO
    TITLE "0:"
    INDEX 01 00:15:66
  TRACK 18 AUDIO
    TITLE "6:cjc124_2783"
    INDEX 01 00:16:12
  TRACK 19 AUDIO
    TITLE "0:"
    INDEX 01 00:17:69
  TRACK 20 AUDIO
    TITLE "5:cjc124_2784"
    INDEX 01 00:18:39
  TRACK 21 AUDIO
    TITLE "0:"
    INDEX 01 00:20:14
  TRACK 22 AUDIO
    TITLE "6:cjc124_2785"
    INDEX 01 00:20:34
  TRACK 23 AUDIO
    TITLE "0:"
    INDEX 01 00:21:68
  TRACK 24 AUDIO
    TITLE "5:cjc124_2786"
    INDEX 01 00:22:32
  TRACK 25 AUDIO
    TITLE "0:"
    INDEX 01 00:23:69
  TRACK 26 AUDIO
    TITLE "6:cjc124_2787"
    INDEX 01 00:24:18
  TRACK 27 AUDIO
    TITLE "0:"
    INDEX 01 00:25:68
  TRACK 28 AUDIO
    TITLE "5:cjc124_2788"
    INDEX 01 00:26:36
  TRACK 29 AUDIO
    TITLE "0:"
    INDEX 01 00:28:51
  TRACK 30 AUDIO
    TITLE "6:cjc124_2789"
    INDEX 01 00:29:01
  TRACK 31 AUDIO
    TITLE "0:"
    INDEX 01 00:31:24
  TRACK 32 AUDIO
    TITLE "5:cjc124_2790"
    INDEX 01 00:31:65
  TRACK 33 AUDIO
    TITLE "0:"
    INDEX 01 00:33:66
  TRACK 34 AUDIO
    TITLE "6:cjc124_2791"
    INDEX 01 00:34:12
  TRACK 35 AUDIO
    TITLE "0:"
    INDEX 01 00:35:51
  TRACK 36 AUDIO
    TITLE "5:cjc124_2792"
    INDEX 01 00:36:13
  TRACK 37 AUDIO
    TITLE "0:"
    INDEX 01 00:37:36
  TRACK 38 AUDIO
    TITLE "6:cjc124_2793"
    INDEX 01 00:37:65
  TRACK 39 AUDIO
    TITLE "0:"
    INDEX 01 00:39:11
  TRACK 40 AUDIO
    TITLE "5:cjc124_2794"
    INDEX 01 00:39:51
  TRACK 41 AUDIO
    TITLE "0:"
    INDEX 01 00:41:26
  TRACK 42 AUDIO
    TITLE "6:cjc124_2795"
    INDEX 01 00:41:49
  TRACK 43 AUDIO
    TITLE "0:"
    INDEX 01 00:43:17
  TRACK 44 AUDIO
    TITLE "5:cjc124_2796"
    INDEX 01 00:43:56
  TRACK 45 AUDIO
    TITLE "0:"
    INDEX 01 00:45:35
  TRACK 46 AUDIO
    TITLE "6:cjc124_2797"
    INDEX 01 00:45:55
  TRACK 47 AUDIO
    TITLE "0:"
    INDEX 01 00:46:72
  TRACK 48 AUDIO
    TITLE "5:cjc124_2798"
    INDEX 01 00:47:36
  TRACK 49 AUDIO
    TITLE "0:"
    INDEX 01 00:49:45
  TRACK 50 AUDIO
    TITLE "6:cjc124_2799"
    INDEX 01 00:49:61
  TRACK 51 AUDIO
    TITLE "0:"
    INDEX 01 00:51:30
  TRACK 52 AUDIO
    TITLE "5:cjc124_2800"
    INDEX 01 00:51:67
  TRACK 53 AUDIO
    TITLE "0:"
    INDEX 01 00:53:33
  TRACK 54 AUDIO
    TITLE "6:cjc124_2801"
    INDEX 01 00:53:55
  TRACK 55 AUDIO
    TITLE "0:"
    INDEX 01 00:55:08
  TRACK 56 AUDIO
    TITLE "5:cjc124_2802"
    INDEX 01 00:55:46
  TRACK 57 AUDIO
    TITLE "0:"
    INDEX 01 00:57:39
  TRACK 58 AUDIO
    TITLE "6:cjc124_2803"
    INDEX 01 00:57:54
  TRACK 59 AUDIO
    TITLE "0:"
    INDEX 01 00:59:06
  TRACK 60 AUDIO
    TITLE "5:cjc124_2804"
    INDEX 01 00:59:49
  TRACK 61 AUDIO
    TITLE "0:"
    INDEX 01 01:01:40
  TRACK 62 AUDIO
    TITLE "6:cjc124_2805"
    INDEX 01 01:01:60
  TRACK 63 AUDIO
    TITLE "0:"
    INDEX 01 01:03:14
  TRACK 64 AUDIO
    TITLE "5:cjc124_2806"
    INDEX 01 01:03:55
  TRACK 65 AUDIO
    TITLE "0:"
    INDEX 01 01:05:44
  TRACK 66 AUDIO
    TITLE "6:cjc124_2807"
    INDEX 01 01:05:64
  TRACK 67 AUDIO
    TITLE "0:"
    INDEX 01 01:07:64
